<?xml version="1.0" encoding="UTF-8"?>
<svg width="36px" height="36px" viewBox="0 0 36 36" version="1.1" xmlns="http://www.w3.org/2000/svg" xmlns:xlink="http://www.w3.org/1999/xlink">
    <title>水厂</title>
    <g id="页面-1" stroke="none" stroke-width="1" fill="none" fill-rule="evenodd">
        <g id="gis切图2" transform="translate(-100.000000, -801.000000)">
            <g id="水厂" transform="translate(100.000000, 801.000000)">
                <ellipse id="椭圆形备份" fill="#4A4A4A" cx="18" cy="33" rx="3" ry="1"></ellipse>
                <path d="M14.7225375,2.9776435 C16.9667213,2.31038274 19.4141913,2.32683033 21.7364762,3.1246503 C24.0587943,3.9224817 25.9996984,5.41366492 27.360012,7.31928234 C28.7202835,9.2248408 29.5,11.5448086 29.5,14.0002917 C29.5,16.3166005 28.8145488,18.4632407 27.6590956,20.2713105 L18.645933,32.2664157 L8.35909198,20.2698644 C7.02372978,18.2163548 6.4121719,15.8525015 6.51014197,13.5184298 C6.60832819,11.1792084 7.41917674,8.86990015 8.92831654,6.93288675 C10.4374563,4.99587336 12.4783538,3.64490426 14.7225375,2.9776435 Z" id="形状" stroke="#1770C1" fill="#1A82E3" fill-rule="nonzero"></path>
                <path d="M13.715957,16.476 L13.9105215,16.5413682 L13.9105215,10.9363682 L21.9665215,10.9363682 L21.9665215,16.650043 L22.1762822,16.5504785 C22.4529326,16.4197607 22.6847178,16.4387607 22.9894785,16.4615645 L23.1475645,16.4737178 L23.1475645,9.75456445 L21.319,9.75456445 L21.319,8.32574219 L14.555,8.32574219 L14.555,9.7545459 L12.7271963,9.7545459 L12.7271963,16.5246133 L12.9012393,16.491957 C13.1976318,16.4372207 13.4301963,16.3824844 13.7159756,16.4759814 L13.715957,16.476 Z M15.7413867,9.5083252 L20.1356934,9.5083252 L20.1356934,9.75152148 L15.7421289,9.75152148 L15.7413867,9.5083252 Z M19.6416934,16.4683926 C19.9866569,16.4692302 20.3236184,16.5723856 20.6099326,16.7648037 L20.8379326,16.9168037 L20.8379326,13.36 L19.495,13.36 L19.495,16.4683926 L19.6416934,16.4683926 Z M15.22,16.9494785 L15.3894785,16.8218037 C15.6394847,16.6275479 15.9377067,16.505103 16.2520859,16.4676318 L16.382043,16.4524355 L16.382043,13.36 L15.0345645,13.36 L15.0345645,16.871957 L15.22,16.9494785 Z M17.3176074,16.704 C17.3811542,16.7400863 17.44233,16.7801967 17.5007607,16.8240859 L18.047957,17.239043 L18.5883252,16.8301533 L18.5883252,12.938957 L17.2423682,12.938957 L17.2423682,16.662957 L17.3176074,16.704 Z M24.5581289,19.5752822 C24.5296753,19.4123117 24.4375139,19.2673731 24.302,19.1724785 L23.8193926,18.809957 C23.2603309,18.3920927 22.4929084,18.3920927 21.9338467,18.809957 L21.452,19.1724785 C21.3436016,19.2543103 21.1940732,19.2543103 21.0856748,19.1724785 L20.6030674,18.809957 C20.043529,18.3918324 19.2755384,18.3918324 18.716,18.809957 L18.2356748,19.1724785 C18.1263851,19.253302 17.9771364,19.253302 17.8678467,19.1724785 L17.386,18.809957 C16.8266135,18.392202 16.0590613,18.392202 15.4996748,18.809957 L15.0178467,19.1724785 C14.9088721,19.2534257 14.7597353,19.2534257 14.6507607,19.1724785 L14.1681533,18.809957 C13.6088543,18.3919595 12.8411457,18.3919595 12.2818467,18.809957 L11.648,19.288 C11.3838745,19.5034647 11.3390045,19.8899179 11.546735,20.1601684 C11.7544655,20.4304189 12.1394583,20.4864542 12.4156074,20.2866318 L13.0403252,19.8146748 C13.1492959,19.7337368 13.2984219,19.7337368 13.4073926,19.8146748 L13.8884785,20.1764355 C14.4472899,20.595073 15.2152316,20.595073 15.774043,20.1764355 L16.2566504,19.8146748 C16.3648909,19.7332346 16.5139557,19.7332346 16.6221963,19.8146748 L17.0926318,20.1718711 C17.4999206,20.4739544 18.0260037,20.5658141 18.5115645,20.4196318 C18.6845717,20.3670662 18.8471023,20.2847712 18.9918711,20.1764355 L19.4744785,19.8139141 C19.5828769,19.7320823 19.7324053,19.7320823 19.8408037,19.8139141 L20.3226318,20.1756748 C20.8819346,20.5936816 21.6496542,20.5936816 22.208957,20.1756748 L22.6908037,19.8131533 C22.7992021,19.7313216 22.9487305,19.7313216 23.0571289,19.8131533 L23.5336318,20.1711289 C23.5468057,20.1822617 23.5604867,20.1926462 23.5746748,20.2022822 C23.7838644,20.3476162 24.059985,20.352692 24.2743747,20.2151444 C24.4887643,20.0775969 24.5992404,19.8244894 24.5543252,19.5737607 L24.5581289,19.5752822 Z M18.0411289,18.6328995 C17.722029,18.6340623 17.4114153,18.5301657 17.1572393,18.3372393 L16.6586748,17.9633252 C16.4924908,17.8386872 16.2639877,17.8386872 16.0978037,17.9633252 L15.6,18.3372393 C15.0774554,18.7304222 14.3578083,18.7304222 13.8352637,18.3372393 L13.3367178,17.9633252 C13.1705337,17.8386872 12.9420307,17.8386872 12.7758467,17.9633252 L12.1313682,18.452 C11.9119706,18.6056472 11.6103758,18.5584845 11.4483594,18.3451926 C11.2863429,18.1319008 11.3218077,17.8287077 11.5286748,17.6585645 L12.1739141,17.1698711 C12.6962,16.775915 13.4163644,16.775915 13.9386504,17.1698711 L14.4364355,17.54 C14.6026234,17.6646473 14.8311374,17.6646473 14.9973252,17.54 L15.4951289,17.1660859 C16.0174111,16.7721392 16.7375645,16.7721392 17.2598467,17.1660859 L17.7584111,17.54 C17.9245952,17.664638 18.1530982,17.664638 18.3192822,17.54 L18.8170859,17.1660859 C19.3399315,16.7721579 20.0604611,16.7721579 20.5833066,17.1660859 L21.0803682,17.54 C21.2467917,17.6647648 21.4755765,17.6647648 21.642,17.54 L22.139043,17.1660859 C22.6616526,16.772275 23.3819118,16.772275 23.9045215,17.1660859 L24.4023252,17.54 C24.6091923,17.7101433 24.6446571,18.0133363 24.4826406,18.2266282 C24.3206242,18.43992 24.0190294,18.4870828 23.7996318,18.3334355 L23.3018652,17.9595215 C23.1356774,17.8348742 22.9071634,17.8348742 22.7409756,17.9595215 L22.2431719,18.3334355 C21.7203914,18.7267358 21.0004738,18.7267358 20.4776934,18.3334355 L19.9798896,17.9595215 C19.8137056,17.8348835 19.5852026,17.8348835 19.4190186,17.9595215 L18.9227363,18.3334355 C18.6691252,18.52523 18.3598578,18.6290336 18.0418896,18.6290859 L18.0411289,18.6328995 Z" id="形状" fill="#FFFFFF" fill-rule="nonzero"></path>
            </g>
        </g>
    </g>
</svg>