<?xml version="1.0" encoding="UTF-8"?>
<svg width="16px" height="16px" viewBox="0 0 16 16" version="1.1" xmlns="http://www.w3.org/2000/svg" xmlns:xlink="http://www.w3.org/1999/xlink">
    <title>fuhao-huizhi 2</title>
    <g id="控件" stroke="none" stroke-width="1" fill="none" fill-rule="evenodd">
        <g id="定位添加黑备份-22" fill="#566073" fill-rule="nonzero">
            <g id="fuhao-huizhi">
                <path d="M4.75544794,2.2594803 L2.25892488,4.75616794 C2.09315296,4.92167445 2,5.14631537 2,5.3805724 C2,5.61482943 2.09315296,5.83947035 2.25892488,6.00497686 L4.75544794,8.50026918 L6.62737517,6.62821856 L6.00417455,6.00497686 L4.75544794,7.25332068 L4.13224733,6.63007898 L5.38050886,5.38127006 L4.75730825,4.75802836 L3.50858164,6.00637218 L2.88538102,5.38313048 L5.38190409,2.88551264 L7.8756367,5.37987474 L8.49930239,4.75616794 L6.00277933,2.25855009 C5.83762031,2.09302254 5.61340185,2 5.37957871,2 C5.14575557,2 4.92153711,2.09302254 4.75637809,2.25855009 L4.75544794,2.2594803 Z M14.1164793,11.6206636 L11.6194911,14.1178164 L10.9962905,13.4941095 L12.2445521,12.2457657 L11.6213514,11.622524 L10.3726248,12.8704027 L9.74942422,12.247161 L10.9976857,10.9988172 L10.3740201,10.3751104 L8.49930239,12.2443704 L10.9958254,14.741058 C11.161321,14.9068409 11.3859472,15 11.6201888,15 C11.8544303,15 12.0790565,14.9068409 12.2445521,14.741058 L14.7410751,12.2443704 C14.906847,12.0788639 15,11.854223 15,11.619966 C15,11.3857089 14.906847,11.161068 14.7410751,10.9955615 L12.2431568,8.50026918 L11.6194911,9.12351087 L14.1164793,11.6206636 Z M10.9525735,4.13013561 L12.8705431,6.04683638 L12.23153,6.68635678 L10.3130952,4.76779558 L10.9525735,4.13013561 Z M4.56011641,10.5202234 L6.47808606,12.4369242 L5.83860782,13.0764446 L3.92063817,11.1597438 L4.56011641,10.5202234 L4.56011641,10.5202234 Z M10.9511782,2.85249013 C11.2909097,2.51250332 11.7518994,2.32159705 12.2325169,2.32185852 C12.7131344,2.32212053 13.1739159,2.5135288 13.5132769,2.85388545 L14.1467092,3.48642926 C14.852963,4.19354587 14.8535872,5.33895037 14.1481044,6.04683638 L6.22136462,13.971308 L2.32124494,14.6745479 L3.02443847,10.7751014 L10.9511782,2.85249013 Z M5.91813566,12.9964464 L13.520253,5.39940918 C13.866734,5.0524403 13.8625483,4.47989513 13.5086261,4.12734497 L12.8756589,3.49480116 C12.5189464,3.13806506 11.9520198,3.1338791 11.6027484,3.48317352 L4.000166,11.0816061 L3.60020143,13.3987629 L5.91860073,12.9973766 L5.91813566,12.9964464 Z" id="形状"></path>
            </g>
        </g>
    </g>
</svg>