<?xml version="1.0" encoding="UTF-8"?>
<svg width="16px" height="16px" viewBox="0 0 16 16" version="1.1" xmlns="http://www.w3.org/2000/svg" xmlns:xlink="http://www.w3.org/1999/xlink">
    <title>通用/图标/系统/定位</title>
    <g id="总览" stroke="none" stroke-width="1" fill="none" fill-rule="evenodd">
        <g id="总览-水厂" transform="translate(-1411.000000, -822.000000)" fill="#566073" fill-rule="nonzero">
            <g id="编组" transform="translate(1356.000000, 754.779412)">
                <g id="工具栏组" transform="translate(0.000000, -5.000000)">
                    <g id="编组-24" transform="translate(55.000000, 72.220588)">
                        <g id="编组-45" transform="translate(1.000000, 2.000000)">
                            <path d="M7.20767311,6.22824418 C7.12122954,6.22824418 7.03463297,6.21124707 6.95232033,6.17709832 L0.757146701,3.61238858 C0.526850909,3.70642901 0.262725778,3.63312103 0.112358073,3.43342739 C-0.0380096319,3.23373374 -0.0373934423,2.95709248 0.11386233,2.7580841 C0.265118102,2.55907572 0.529567131,2.48696862 0.759441663,2.58205453 L6.95507429,0.0499483326 C7.1178636,-0.0166494442 7.29732963,-0.0166494442 7.46011894,0.0499483326 L13.6557516,2.58205453 C13.8633691,2.66688557 13.9993839,2.87023284 14,3.09644896 C14.0006079,3.32266507 13.8653581,3.52663042 13.6580465,3.61238858 L7.46302589,6.17725284 C7.38071325,6.21124707 7.29411668,6.22824418 7.20767311,6.22824418 Z M2.42634912,3.10108453 L7.20767311,5.08047553 L11.9889971,3.10108453 L7.20767311,1.14688016 L2.42634912,3.10108453 Z" id="形状"></path>
                            <path d="M7.20767311,9.11806233 C7.12122954,9.11806233 7.03478597,9.10106522 6.95262633,9.06691647 L0.757146701,6.50267028 C0.475631353,6.38616281 0.340993578,6.06120892 0.456353671,5.7770481 C0.571713765,5.49273277 0.893467448,5.35675587 1.1748298,5.47326335 L7.20752012,7.97013916 L13.2402104,5.47326335 C13.5215728,5.35675587 13.8433265,5.49273277 13.9586866,5.7770481 C14.0740467,6.06136344 13.9394089,6.38616281 13.6578935,6.50267028 L7.4625669,9.06691647 C7.38040726,9.1009107 7.29396369,9.11806233 7.20767311,9.11806233 Z" id="路径"></path>
                            <path d="M7.20767311,12 C7.12122954,12 7.03478597,11.9830029 6.95262633,11.9488541 L0.757146701,9.38460796 C0.475631353,9.26810048 0.340993578,8.94314659 0.456353671,8.65898577 C0.571713765,8.37467044 0.893314451,8.23869354 1.1748298,8.35520102 L7.20752012,10.8520768 L13.2402104,8.35520102 C13.5217258,8.23869354 13.8433265,8.37467044 13.9586866,8.65898577 C14.0740467,8.94330111 13.9394089,9.26810048 13.6578935,9.38460796 L7.4625669,11.9488541 C7.38172887,11.9825642 7.29513099,11.9999405 7.20767311,12 L7.20767311,12 Z" id="路径"></path>
                        </g>
                    </g>
                </g>
            </g>
        </g>
    </g>
</svg>