<?xml version="1.0" encoding="UTF-8"?>
<svg width="16px" height="16px" viewBox="0 0 16 16" version="1.1" xmlns="http://www.w3.org/2000/svg" xmlns:xlink="http://www.w3.org/1999/xlink">
    <title>定位添加黑备份 18</title>
    <g id="总览" stroke="none" stroke-width="1" fill="none" fill-rule="evenodd">
        <g id="总览-水厂" transform="translate(-1372.000000, -793.000000)" fill="#566073" fill-rule="nonzero">
            <g id="编组-24" transform="translate(1372.000000, 624.000000)">
                <g id="编组" transform="translate(0.000000, 169.000000)">
                    <g id="尺子" transform="translate(1.000000, 1.000000)">
                        <rect id="矩形" opacity="0" x="0" y="0" width="14" height="14"></rect>
                        <path d="M13.1726875,5.1349375 L5.1375625,13.16875 C4.62523246,13.6799611 3.79576754,13.6799611 3.2834375,13.16875 L0.811125,10.69775 C0.299913922,10.18542 0.299913922,9.35595504 0.811125,8.843625 L8.84625,0.8085 C9.35858004,0.297288922 10.188045,0.297288922 10.700375,0.8085 L13.1726875,3.28125 C13.6836076,3.79352958 13.6836076,4.62265792 13.1726875,5.1349375 Z M12.5601875,3.899 L10.087,1.421875 C9.91615631,1.2510829 9.63921869,1.2510829 9.468375,1.421875 L8.8493125,2.0409375 L10.087,3.28125 L9.4679375,3.899 L8.2306875,2.6604375 L8.4686875,2.422 L6.8770625,4.015375 L7.30275,3.5875 L8.54,4.8260625 L7.921375,5.4455625 L6.6836875,4.20875 L5.2399375,5.6525 L5.75575,5.13625 L6.993,6.3748125 L6.374375,6.9960625 L5.137125,5.7575 L3.63125,7.2664375 L4.20875,6.6863125 L5.446,7.924875 L4.8278125,8.544375 L3.590125,7.30625 L1.4245,9.4740625 C1.34221351,9.55614123 1.29596794,9.66758865 1.29596794,9.7838125 C1.29596794,9.90003635 1.34221351,10.0114838 1.4245,10.0935625 L3.8994375,12.571125 C4.07028119,12.7419171 4.34721881,12.7419171 4.5180625,12.571125 L12.5615,4.521125 C12.6445942,4.43894333 12.6913535,4.32693196 12.6913535,4.2100625 C12.6913535,4.09319304 12.6445942,3.98118167 12.5615,3.899 L12.5601875,3.899 Z M2.0435625,8.854125 L2.6621875,8.234625 L3.8994375,9.4731875 L3.28125,10.0926875 L2.0435625,8.854125 Z" id="形状"></path>
                    </g>
                </g>
            </g>
        </g>
    </g>
</svg>