<?xml version="1.0" encoding="UTF-8"?>
<svg width="16px" height="16px" viewBox="0 0 16 16" version="1.1" xmlns="http://www.w3.org/2000/svg" xmlns:xlink="http://www.w3.org/1999/xlink">
    <title>定位添加黑备份 21</title>
    <g id="总览" stroke="none" stroke-width="1" fill="none" fill-rule="evenodd">
        <g id="总览-水厂" transform="translate(-1372.000000, -867.000000)" fill="#566073" fill-rule="nonzero">
            <g id="编组-24" transform="translate(1372.000000, 624.000000)">
                <g id="删除" transform="translate(0.000000, 243.000000)">
                    <rect id="矩形" opacity="0" x="0" y="0" width="16" height="16"></rect>
                    <path d="M3.16667188,4 L2.5,4 C2.22385763,4 2,3.77614237 2,3.5 C2,3.22385763 2.22385763,3 2.5,3 L13.5,3 C13.7761424,3 14,3.22385763 14,3.5 C14,3.77614237 13.7761424,4 13.5,4 L4.16667187,4 L4.16667187,12.8333281 C4.16666773,13.0543432 4.25446272,13.2663075 4.41074251,13.4225902 C4.5670223,13.5788729 4.77898493,13.6666719 5,13.6666719 L11,13.6666719 C11.2210151,13.6666719 11.4329777,13.5788729 11.5892575,13.4225902 C11.7455373,13.2663075 11.8333323,13.0543432 11.8333281,12.8333281 L11.8333281,5.5 C11.8333281,5.22385763 12.0571858,5 12.3333281,5 C12.6094705,5 12.8333281,5.22385763 12.8333281,5.5 L12.8333281,12.8333281 C12.8333281,13.8458281 12.0125,14.6666719 11,14.6666719 L5,14.6666719 C3.9875,14.6666719 3.16667188,13.8458281 3.16667188,12.8333281 L3.16667188,4 Z M6.66667187,2.33332812 C6.3905295,2.33332812 6.16667187,2.1094705 6.16667187,1.83332812 C6.16667187,1.55718575 6.3905295,1.33332812 6.66667187,1.33332812 L9.33332813,1.33332812 C9.6094705,1.33332812 9.83332813,1.55718575 9.83332813,1.83332812 C9.83332813,2.1094705 9.6094705,2.33332812 9.33332813,2.33332812 L6.66667187,2.33332812 L6.66667187,2.33332812 Z M6.16667187,6.83332812 C6.16667187,6.55718575 6.3905295,6.33332812 6.66667187,6.33332812 C6.94281425,6.33332812 7.16667187,6.55718575 7.16667187,6.83332812 L7.16667187,10.8333281 C7.16667187,11.1094705 6.94281425,11.3333281 6.66667187,11.3333281 C6.3905295,11.3333281 6.16667187,11.1094705 6.16667187,10.8333281 L6.16667187,6.83332812 Z M8.83332813,6.83332812 C8.83332813,6.55718575 9.05718575,6.33332812 9.33332813,6.33332812 C9.6094705,6.33332812 9.83332813,6.55718575 9.83332813,6.83332812 L9.83332813,10.8333281 C9.83332813,11.1094705 9.6094705,11.3333281 9.33332813,11.3333281 C9.05718575,11.3333281 8.83332813,11.1094705 8.83332813,10.8333281 L8.83332813,6.83332812 Z" id="形状"></path>
                </g>
            </g>
        </g>
    </g>
</svg>