<?xml version="1.0" encoding="UTF-8"?>
<svg width="16px" height="16px" viewBox="0 0 16 16" version="1.1" xmlns="http://www.w3.org/2000/svg" xmlns:xlink="http://www.w3.org/1999/xlink">
    <title>定位添加黑备份 19</title>
    <g id="总览" stroke="none" stroke-width="1" fill="none" fill-rule="evenodd">
        <g id="总览-水厂" transform="translate(-1372.000000, -826.000000)">
            <g id="编组-24" transform="translate(1372.000000, 624.000000)">
                <g id="定位添加黑备份-7" transform="translate(0.000000, 202.000000)">
                    <path d="M13.5497384,14.5467552 L2.43698002,14.5053536 C1.8846991,14.503296 1.43865495,14.0539159 1.44071253,13.501635 C1.44115437,13.383038 1.46268942,13.2654651 1.5043113,13.1544108 L2.75489532,9.81763766 C2.90212252,9.4248102 3.27888612,9.16563547 3.6983863,9.16861261 L12.3129754,9.22974927 C12.7268573,9.23268654 13.0961589,9.49028914 13.2418646,9.87768648 L14.4894498,13.1947246 C14.6838748,13.7116553 14.4224323,14.288323 13.9055016,14.482748 C13.7917866,14.5255178 13.6712297,14.5472079 13.5497384,14.5467552 Z" id="路径-11" stroke="#566073"></path>
                    <polygon id="路径-12" fill="#FFFFFF" points="9.32169456 9.55601892 5.65489336 12.9887012 3.9715 12.2559575 1.86180624 9.8974076 2.13264453 8.96313535 5.5917504 5.9382974 8.78583279 2.70799449 9.32169456 2.45544895 11.8764871 4.34850476 12.6344005 5.52791478 10.9048827 7.72207508"></polygon>
                    <g id="尺子" transform="translate(1.000000, 0.000000)" fill="#566073" fill-rule="nonzero">
                        <rect id="矩形" opacity="0" x="0" y="0" width="14" height="14"></rect>
                        <path d="M11.7584739,6.54915106 L5.1375625,13.16875 C4.62523246,13.6799611 3.79576754,13.6799611 3.2834375,13.16875 L0.811125,10.69775 C0.299913922,10.18542 0.299913922,9.35595504 0.811125,8.843625 L7.43203644,2.22271356 C7.94436647,1.71150248 8.7738314,1.71150248 9.28616144,2.22271356 L11.7584739,4.69546356 C12.2693941,5.20774314 12.2693941,6.03687148 11.7584739,6.54915106 Z M8.67278644,2.83608856 C8.50194275,2.66529646 8.22500512,2.66529646 8.05416144,2.83608856 L7.43509894,3.45515106 L6.81647394,4.07465106 L7.05447394,3.83621356 L6.8770625,4.015375 L7.30275,3.5875 L8.54,4.8260625 L7.921375,5.4455625 L6.6836875,4.20875 L5.2399375,5.6525 L5.75575,5.13625 L6.993,6.3748125 L6.374375,6.9960625 L5.137125,5.7575 L3.63125,7.2664375 L4.20875,6.6863125 L5.446,7.924875 L4.8278125,8.544375 L3.590125,7.30625 L1.4245,9.4740625 C1.34221351,9.55614123 1.29596794,9.66758865 1.29596794,9.7838125 C1.29596794,9.90003635 1.34221351,10.0114838 1.4245,10.0935625 L3.8994375,12.571125 C4.07028119,12.7419171 4.34721881,12.7419171 4.5180625,12.571125 L11.1472864,5.93533856 C11.2303806,5.85315689 11.2771399,5.74114553 11.2771399,5.62427606 C11.2771399,5.5074066 11.2303806,5.39539524 11.1472864,5.31321356 L8.67278644,2.83608856 Z M2.0435625,8.854125 L2.6621875,8.234625 L3.8994375,9.4731875 L3.28125,10.0926875 L2.0435625,8.854125 Z" id="形状"></path>
                    </g>
                </g>
            </g>
        </g>
    </g>
</svg>