<?xml version="1.0" encoding="UTF-8"?>
<svg width="16px" height="16px" viewBox="0 0 16 16" version="1.1" xmlns="http://www.w3.org/2000/svg" xmlns:xlink="http://www.w3.org/1999/xlink">
    <title>定位添加黑备份 7</title>
    <g id="总览" stroke="none" stroke-width="1" fill="none" fill-rule="evenodd">
        <g id="总览-水厂" transform="translate(-1372.000000, -624.000000)">
            <g id="编组" transform="translate(1372.000000, 624.000000)">
                <rect id="矩形备份-13" fill="#D8D8D8" opacity="0" x="0" y="0" width="16" height="16"></rect>
                <g id="定位" transform="translate(3.000000, 2.000000)" fill="#566073" fill-rule="nonzero" stroke="#566073" stroke-width="0.2">
                    <g id="形状-2">
                        <path d="M5.00013468,12 L1.48579125,8.50521054 C0.527542088,7.56356414 0,6.30915136 0,4.97065584 C0,2.22979939 2.24309764,0 5,0 C7.75690236,0 10,2.22979939 10,4.97065584 C10,6.31008859 9.47178451,7.5654386 8.51232323,8.507085 L8.4962963,8.5239551 L5.00013468,12 Z M5.00013468,0.856492536 C2.71811448,0.856492536 0.861683502,2.70216232 0.861683502,4.97065584 C0.861683502,6.0834133 1.3023569,7.12614643 2.1023569,7.9067235 L2.12713805,7.93296588 L5.00013468,10.7886997 L7.89791246,7.9067235 C8.69791246,7.12628032 9.13858586,6.08354718 9.13858586,4.97065584 C9.13858586,2.70216232 7.28215488,0.856492536 5.00013468,0.856492536 Z M5.00013468,7.04915984 C3.76484848,7.04915984 2.75986532,6.04994087 2.75986532,4.82190436 C2.75986532,3.59386785 3.76484848,2.59464887 5.00013468,2.59464887 C6.23555556,2.59464887 7.2406734,3.59386785 7.2406734,4.82190436 C7.2406734,6.04994087 6.23555556,7.04915984 5.00013468,7.04915984 Z M5.00013468,3.45114141 C4.23986532,3.45114141 3.62141414,4.06609689 3.62141414,4.82190436 C3.62141414,5.57771182 4.23986532,6.19266731 5.00013468,6.19266731 C5.76040404,6.19266731 6.3789899,5.57771182 6.3789899,4.82190436 C6.3789899,4.06609689 5.76040404,3.45114141 5.00013468,3.45114141 Z" id="形状"></path>
                    </g>
                </g>
            </g>
        </g>
    </g>
</svg>