<?xml version="1.0" encoding="UTF-8"?>
<svg width="16px" height="16px" viewBox="0 0 16 16" version="1.1" xmlns="http://www.w3.org/2000/svg" xmlns:xlink="http://www.w3.org/1999/xlink">
    <title>定位添加黑备份 15</title>
    <g id="总览" stroke="none" stroke-width="1" fill="none" fill-rule="evenodd">
        <g id="总览-水厂" transform="translate(-1372.000000, -659.000000)">
            <g id="编组-24" transform="translate(1372.000000, 624.000000)">
                <g id="编组" transform="translate(0.000000, 35.000000)">
                    <rect id="矩形备份-13" fill="#D8D8D8" opacity="0" x="0" y="0" width="16" height="16"></rect>
                    <path d="M12.6578845,7.06108429 C12.2235754,7.06188254 11.830816,7.3193734 11.6568845,7.71733429 L4.03388446,7.71733429 C3.85986266,7.31944966 3.46715965,7.06199576 3.03288446,7.06108429 C2.42912284,7.0618075 1.93985767,7.55107266 1.93913446,8.15483429 C1.93913446,8.75814679 2.43000946,9.24858429 3.03288446,9.24858429 C3.46726149,9.24801286 3.86013388,8.99044792 4.03388446,8.59233429 L11.656447,8.59233429 C11.8301975,8.99044792 12.2230699,9.24801286 12.657447,9.24858429 C13.2607595,9.24858429 13.751197,8.75814679 13.751197,8.15483429 C13.7509557,7.5510436 13.261675,7.06156708 12.6578845,7.06108429 L12.6578845,7.06108429 Z" id="路径" fill="#566073" transform="translate(7.845166, 8.154834) rotate(-45.000000) translate(-7.845166, -8.154834) "></path>
                </g>
            </g>
        </g>
    </g>
</svg>