<?xml version="1.0" encoding="UTF-8"?>
<svg width="30px" height="30px" viewBox="0 0 30 30" version="1.1" xmlns="http://www.w3.org/2000/svg" xmlns:xlink="http://www.w3.org/1999/xlink">
    <title>chushiweizhi</title>
    <g id="UI样式" stroke="none" stroke-width="1" fill="none" fill-rule="evenodd">
        <g id="UI基础样式规范" transform="translate(-419.000000, -2012.000000)" fill="#566073" fill-rule="nonzero">
            <g id="chushiweizhi" transform="translate(419.000251, 2012.028048)">
                <path d="M28.7861549,16.0976549 L27.5231549,16.0976549 C26.9688975,22.163737 22.1610996,26.9683799 16.0946549,27.5186549 L16.0946549,28.7891549 C16.0633208,29.4033741 15.5561728,29.8853097 14.9411549,29.8853097 C14.3261369,29.8853097 13.8189889,29.4033741 13.7876549,28.7891549 L13.7876549,27.5186549 C7.72038522,26.9683682 2.91192389,22.163062 2.35765486,16.0961549 L1.09615486,16.0961549 C0.481935633,16.0648208 0,15.5576728 0,14.9426549 C0,14.3276369 0.481935633,13.8204889 1.09615486,13.7891549 L2.36065486,13.7891549 C2.91458283,7.7237847 7.72063945,2.91899001 13.7861549,2.36665486 L13.7861549,1.09615486 C13.8174889,0.481935633 14.3246369,0 14.9396549,0 C15.5546728,0 16.0618208,0.481935633 16.0931549,1.09615486 L16.0931549,2.36665486 C22.1598398,2.91762448 26.9674995,7.72276012 27.5216549,13.7891549 L28.7861549,13.7891549 C29.2122964,13.7674155 29.6157086,13.9823932 29.8353037,14.3482445 C30.0548988,14.7140959 30.0548988,15.1712138 29.8353037,15.5370652 C29.6157086,15.9029166 29.2122964,16.1178942 28.7861549,16.0961549 L28.7861549,16.0976549 Z M24.3731549,13.7621549 L25.4411549,13.7621549 C24.8922286,8.85989725 21.0225008,4.99079211 16.1201549,4.44265486 L16.1201549,5.50315486 C16.1201549,6.15429858 15.5922986,6.68215486 14.9411549,6.68215486 C14.2900111,6.68215486 13.7621549,6.15429858 13.7621549,5.50315486 L13.7621549,4.44265486 C8.85980897,4.99079211 4.99008108,8.85989725 4.44115486,13.7621549 L5.50915486,13.7621549 C6.16112701,13.7621549 6.68965486,14.2906827 6.68965486,14.9426549 C6.68965486,15.594627 6.16112701,16.1231549 5.50915486,16.1231549 L4.44115486,16.1231549 C4.99008108,21.0254125 8.85980897,24.8945176 13.7621549,25.4426549 L13.7621549,24.3821549 C13.7621549,23.7310111 14.2900111,23.2031549 14.9411549,23.2031549 C15.5922986,23.2031549 16.1201549,23.7310111 16.1201549,24.3821549 L16.1201549,25.4426549 C21.0225008,24.8945176 24.8922286,21.0254125 25.4411549,16.1231549 L24.3731549,16.1231549 C23.7211827,16.1231549 23.1926549,15.594627 23.1926549,14.9426549 C23.1926549,14.2906827 23.7211827,13.7621549 24.3731549,13.7621549 Z M14.9411549,20.9426549 C11.6274464,20.9426549 8.94115486,18.2563634 8.94115486,14.9426549 C8.94115486,11.6289464 11.6274464,8.94265486 14.9411549,8.94265486 C18.2548634,8.94265486 20.9411549,11.6289464 20.9411549,14.9426549 C20.9411549,18.2563634 18.2548634,20.9426549 14.9411549,20.9426549 L14.9411549,20.9426549 Z" id="形状"></path>
            </g>
        </g>
    </g>
</svg>
