<?xml version="1.0" standalone="no"?><!DOCTYPE svg PUBLIC "-//W3C//DTD SVG 1.1//EN" "http://www.w3.org/Graphics/SVG/1.1/DTD/svg11.dtd"><svg t="1754466500286" class="icon" viewBox="0 0 1024 1024" version="1.1" xmlns="http://www.w3.org/2000/svg" p-id="1677" xmlns:xlink="http://www.w3.org/1999/xlink" width="16" height="16"><path d="M474.474427 214.685243c0 23.961408 19.42436 43.385768 43.385768 43.385768s43.385768-19.42436 43.385768-43.385768c0-0.280929-0.0163-0.558981-0.021094-0.838951l0.061363 0L561.286232 91.918382l-0.052734 0c-0.27997-23.720749-19.585438-42.866097-43.372345-42.866097s-43.093333 19.145348-43.372345 42.866097l-0.052734 0 0 121.92791 0.061363 0C474.489768 214.126262 474.474427 214.404315 474.474427 214.685243z" p-id="1678"></path><path d="M220.51188 553.661843l0-0.061363c0.27997 0.005753 0.558022 0.021094 0.838951 0.021094 23.961408 0 43.385768-19.42436 43.385768-43.385768s-19.42436-43.385768-43.385768-43.385768c-0.280929 0-0.558981 0.0163-0.838951 0.021094l0-0.061363L98.58397 466.809768l0 0.052734c-23.720749 0.27997-42.866097 19.585438-42.866097 43.372345s19.145348 43.093333 42.866097 43.372345l0 0.052734L220.51188 553.659925z" p-id="1679"></path><path d="M811.932285 466.809768l0 0.052734c-23.720749 0.27997-42.866097 19.585438-42.866097 43.372345s19.145348 43.093333 42.866097 43.372345l0 0.052734 121.92791 0 0-0.061363c0.27997 0.005753 0.558022 0.021094 0.838951 0.021094 23.961408 0 43.385768-19.42436 43.385768-43.385768s-19.42436-43.385768-43.385768-43.385768c-0.280929 0-0.558981 0.0163-0.838951 0.021094l0-0.061363L811.932285 466.80785z" p-id="1680"></path><path d="M714.384779 314.670022c16.820255 16.820255 44.008989 16.933393 60.979775 0.357633l0.037393 0.037393 86.215431-86.215431-0.043146-0.043146c0.202307-0.194637 0.409408-0.379685 0.60788-0.578157 16.942981-16.942981 16.942981-44.413603 0-61.356584-16.942981-16.942981-44.413603-16.942981-61.356584 0-0.199431 0.198472-0.383521 0.406532-0.578157 0.60788l-0.043146-0.043146-86.215431 86.215431 0.037393 0.037393C697.451386 270.661034 697.564524 297.849768 714.384779 314.670022z" p-id="1681"></path><path d="M176.975581 229.804584l86.215431 86.215431 0.043146-0.043146c0.194637 0.201348 0.379685 0.409408 0.578157 0.60788 16.942981 16.942981 44.413603 16.942981 61.356584 0 16.942981-16.942981 16.942981-44.413603 0-61.356584-0.198472-0.198472-0.406532-0.383521-0.60788-0.578157l0.043146-0.043146-86.215431-86.215431-0.037393 0.037393c-16.970787-16.57576-44.160479-16.461663-60.979775 0.357633-16.820255 16.820255-16.933393 44.008989-0.357633 60.979775L176.975581 229.804584z" p-id="1682"></path><path d="M327.387566 571.066007l75.091416 0c-9.558292-18.133813-14.976479-38.787356-14.976479-60.710352 0-72.016539 58.380464-130.397004 130.397004-130.397004s130.397004 58.380464 130.397004 130.397004c0 21.922996-5.418187 42.576539-14.976479 60.710352l75.091416 0c6.097019-19.147266 9.397213-39.541933 9.397213-60.710352 0-110.406951-89.503161-199.910112-199.910112-199.910112s-199.910112 89.503161-199.910112 199.910112C317.990352 531.524075 321.290547 551.918742 327.387566 571.066007z" p-id="1683"></path><path d="M814.466397 691.29588l0-0.231071c23.579805-0.639521 42.501753-19.940195 42.501753-43.674367 0-24.137828-19.567221-43.705049-43.705049-43.705049-0.5283 0-1.051805 0.021094-1.575311 0.04027L145.594966 603.725663c-0.523506-0.018217-1.047011-0.04027-1.575311-0.04027-24.137828 0-43.705049 19.567221-43.705049 43.705049 0 23.641169 18.774292 42.885273 42.224659 43.667655L142.539266 691.29588 814.466397 691.29588z" p-id="1684"></path><path d="M930.244554 720.670682c-0.5283 0-1.051805 0.021094-1.575311 0.04027L275.133843 720.710951l0 0.001918c-0.554187-0.021094-1.109333-0.042187-1.668315-0.042187-24.137828 0-43.705049 19.567221-43.705049 43.705049 0 24.137828 19.567221 43.705049 43.705049 43.705049 0.55994 0 1.114127-0.021094 1.668315-0.042187l0 0.242577 656.314007 0 0-0.231071c23.579805-0.639521 42.501753-19.940195 42.501753-43.674367C973.949603 740.237903 954.382382 720.670682 930.244554 720.670682z" p-id="1685"></path><path d="M815.625588 837.699116l0-0.014382-0.586787 0c-0.523506-0.018217-1.047011-0.04027-1.575311-0.04027s-1.051805 0.021094-1.575311 0.04027L210.036015 837.684734c-0.523506-0.018217-1.047011-0.04027-1.575311-0.04027-24.137828 0-43.705049 19.567221-43.705049 43.705049 0 23.962367 19.287251 43.410697 43.183461 43.691625l0 0.213813 607.687431 0 0-0.255041C838.758592 923.87236 857.168539 904.761528 857.168539 881.349513 857.168539 857.936539 838.758592 838.825708 815.625588 837.699116z" p-id="1686"></path></svg>